/vscmnt/brussel_pixiu_data/_data_brussel/112/vsc11236/PredSimResults/SUBJ11opt3D/trackIG/worker_15.mot
version=1
nRows=4
nColumns=50
inDegrees=yes
endheader
                time	         pelvis_tilt	         pelvis_list	     pelvis_rotation	           pelvis_tx	           pelvis_ty	           pelvis_tz	       hip_flexion_r	     hip_adduction_r	      hip_rotation_r	        knee_angle_r	       ankle_angle_r	         mtp_angle_r	       hip_flexion_l	     hip_adduction_l	      hip_rotation_l	        knee_angle_l	       ankle_angle_l	         mtp_angle_l	    lumbar_extension	      lumbar_bending	     lumbar_rotation	 ercspn_r/activation	 intobl_r/activation	 extobl_r/activation	    abd_r/activation	    add_r/activation	hamstrings_r/activation	bifemsh_r/activation	glut_max_r/activation	iliopsoas_r/activation	rect_fem_r/activation	  vasti_r/activation	gastroc_r/activation	 soleus_r/activation	tib_ant_r/activation	 ercspn_l/activation	 intobl_l/activation	 extobl_l/activation	    abd_l/activation	    add_l/activation	hamstrings_l/activation	bifemsh_l/activation	glut_max_l/activation	iliopsoas_l/activation	rect_fem_l/activation	  vasti_l/activation	gastroc_l/activation	 soleus_l/activation	tib_ant_l/activation	
          0.00000000	         -7.19197028	         -2.45078813	          4.68753631	          0.00000000	          0.94582538	          0.00106635	         35.82125673	          2.11149759	          0.48261821	        -31.17728082	          7.66106958	          0.41458145	        -20.81841091	         -2.75358023	         -2.91934364	        -11.93722237	        -15.37353884	         43.21005412	        -11.72161167	          4.01615787	        -10.21600248	          0.12303808	          0.05098900	          0.02612396	          0.02586026	          0.44305670	          0.32403657	          0.45829353	          0.06526153	          0.12895390	          0.00999999	          0.00999999	          0.01056561	          0.00999999	          0.79246084	          0.04271702	          0.00999999	          0.02509805	          0.00999999	          0.26514763	          0.02443492	          0.20903349	          0.00999999	          0.81639558	          0.04785968	          0.01085336	          0.15036925	          0.10486580	          0.00999999	
          0.00797272	         -7.11960158	         -2.35159017	          4.46818372	          0.01845101	          0.94081811	          0.00228964	         35.89024236	          2.41513792	          0.74533444	        -33.07034869	          7.63017375	          0.40551277	        -20.49902950	         -2.75841479	         -3.31609493	        -14.56585594	        -15.61073059	         43.18661321	        -11.40814339	          3.96974215	        -10.24756667	          0.10860657	          0.04500835	          0.02305980	          0.02282703	          0.51625735	          0.28602935	          0.40453891	          0.14097301	          0.11382851	          0.00999999	          0.00999999	          0.00999999	          0.00999999	          0.69951074	          0.04347047	          0.00999999	          0.02215422	          0.00999999	          0.33351305	          0.02156887	          0.18451533	          0.00999999	          0.72063810	          0.04224607	          0.00999999	          0.13273199	          0.09256577	          0.00999999	
          0.01594545	         -7.03613193	         -2.24737944	          4.22457694	          0.03704951	          0.93553362	          0.00352318	         35.92931665	          2.70181363	          1.01070389	        -35.44481240	          8.52199342	          0.62545604	        -19.93385746	         -2.77728986	         -3.72413557	        -17.65699828	        -15.83014911	         42.90075805	        -11.07253779	          3.91958910	        -10.23537698	          0.09586778	          0.03972919	          0.02035505	          0.14035815	          0.53788693	          0.25248011	          0.35708933	          0.16118938	          0.10047722	          0.00999999	          0.19154376	          0.01453956	          0.11059346	          0.61746303	          0.09342678	          0.00999999	          0.01955569	          0.00999999	          0.37695143	          0.02698940	          0.16287298	          0.00999999	          0.63611230	          0.03729090	          0.00999999	          0.11716346	          0.08170846	          0.00999999	
          0.02391817	         -6.94668705	         -2.16265711	          3.95144078	          0.05566087	          0.93025243	          0.00472449	         35.82604843	          2.97169373	          1.21870531	        -37.87156165	         10.75649601	          1.41414226	        -19.10508389	         -2.83523377	         -4.15725793	        -21.17479288	        -16.13516183	         42.26584760	        -10.72986353	          3.90015728	        -10.16812711	          0.08462316	          0.03506923	          0.01796754	          0.23811548	          0.50149032	          0.22286597	          0.31520526	          0.26069685	          0.08869195	          0.00999999	          0.25054028	          0.01283417	          0.12866936	          0.54503895	          0.09826738	          0.00999999	          0.01726194	          0.00999999	          0.41614816	          0.02382374	          0.14376912	          0.00999999	          0.56150079	          0.03291694	          0.00999999	          0.10342101	          0.07212463	          0.00999999	
